<?xml version="1.0" standalone="no"?>
<!DOCTYPE svg PUBLIC "-//W3C//DTD SVG 20010904//EN"
 "http://www.w3.org/TR/2001/REC-SVG-20010904/DTD/svg10.dtd">
<svg version="1.0" xmlns="http://www.w3.org/2000/svg"
 width="180.000000pt" height="180.000000pt" viewBox="0 0 180.000000 180.000000"
 preserveAspectRatio="xMidYMid meet">

<g transform="translate(0.000000,180.000000) scale(0.100000,-0.100000)"
fill="#000000" stroke="none">
<path d="M0 900 l0 -900 900 0 900 0 0 900 0 900 -900 0 -900 0 0 -900z m302
353 c15 -14 18 -32 18 -129 l0 -113 43 19 c49 23 130 26 191 8 25 -8 61 -32
93 -63 l51 -50 33 39 c71 85 205 111 307 60 92 -46 145 -133 145 -239 0 -106
-53 -193 -145 -239 -102 -51 -236 -25 -307 60 l-33 39 -53 -52 c-59 -57 -99
-73 -185 -73 -69 0 -126 26 -178 80 -67 68 -72 97 -72 390 0 186 3 259 12 268
17 17 58 15 80 -5z m985 -283 c35 -41 67 -75 72 -75 5 0 32 29 61 65 28 36 58
71 67 78 38 28 93 1 93 -46 0 -15 -26 -57 -70 -112 -38 -48 -70 -91 -70 -95 0
-4 32 -47 70 -95 78 -97 87 -129 45 -156 -40 -26 -67 -11 -135 76 l-63 80 -58
-75 c-79 -99 -109 -115 -149 -75 -11 11 -20 29 -20 39 0 10 30 57 67 103 36
45 70 88 74 94 5 6 -22 49 -66 105 -41 52 -75 102 -75 112 0 9 9 26 21 38 36
36 67 22 136 -61z"/>
<path d="M426 930 c-68 -21 -115 -102 -102 -174 9 -46 57 -101 101 -116 104
-34 210 64 189 176 -9 48 -57 101 -102 114 -42 11 -47 11 -86 0z"/>
<path d="M863 921 c-97 -45 -117 -172 -37 -247 48 -46 102 -53 161 -22 60 31
86 76 80 144 -4 61 -28 97 -83 124 -50 25 -68 25 -121 1z"/>
</g>
</svg>
